<svg xmlns="http://www.w3.org/2000/svg" viewBox="0 0 32 32" fill="none">
  <rect width="32" height="32" rx="8" fill="url(#g)"/>
  <path d="M18 5c1.5 3.2 4 5.4 6 7 2.7 2.1 4 4.7 4 7.3a12 12 0 0 1-24 0c0-1.5.6-3.1 1.3-4 .3 1.5 1.3 2.3 2.7 2.3a3.3 3.3 0 0 0 3.3-3.3c0-1.8-.7-2.7-1.3-4C8.6 9.4 9.7 6.9 13 4c.7 3.3 2.7 6.5 5 8.7C18.7 10.1 18.4 7.5 18 5z" fill="#fff"/>
  <defs>
    <linearGradient id="g" x1="0" y1="0" x2="32" y2="32" gradientUnits="userSpaceOnUse">
      <stop stop-color="#7c6cff"/>
      <stop offset="1" stop-color="#4fd1ff"/>
    </linearGradient>
  </defs>
</svg>
